<svg xmlns="http://www.w3.org/2000/svg" viewBox="0 0 24 24"><defs><style>.cls-1{fill:#323232;}</style></defs><g id="Guides"><path class="cls-1" d="M21.6,11.82A2.13,2.13,0,0,0,18,10.3a10.89,10.89,0,0,0-5.57-1.63l1.18-3.74,3.21.75v.05a1.73,1.73,0,1,0,.12-.63l-3.46-.81a.29.29,0,0,0-.35.2L11.8,8.66A11,11,0,0,0,6,10.28a2.11,2.11,0,1,0-2.51,3.36,3.94,3.94,0,0,0-.07.69C3.38,17.45,7.23,20,12,20s8.58-2.55,8.58-5.67a4.62,4.62,0,0,0-.06-.65A2.12,2.12,0,0,0,21.6,11.82ZM7.82,13.28a1.27,1.27,0,1,1,1.27,1.26A1.26,1.26,0,0,1,7.82,13.28ZM15.07,17A4.16,4.16,0,0,1,12,18h0A4.16,4.16,0,0,1,8.93,17a.29.29,0,0,1,0-.42.31.31,0,0,1,.42,0,3.62,3.62,0,0,0,2.64.77h0a3.62,3.62,0,0,0,2.64-.77.31.31,0,0,1,.42,0A.29.29,0,0,1,15.07,17Zm-.15-2.47a1.26,1.26,0,1,1,0-2.52,1.26,1.26,0,0,1,0,2.52Z"/></g></svg>