<svg id="Layer_1" data-name="Layer 1" xmlns="http://www.w3.org/2000/svg" viewBox="0 0 24 24"><defs><style>.cls-1{fill:#323232;}</style></defs><path class="cls-1" d="M10.28,20a.56.56,0,0,1-.2-.52c0-2.09,0-4.17,0-6.26,0-.14,0-.19-.18-.18-.6,0-1.21,0-1.82,0-.3,0-.42-.12-.42-.41V10.17c0-.29.13-.41.42-.41H10c.11,0,.14,0,.14-.15,0-.66,0-1.33,0-2a3.7,3.7,0,0,1,1.2-2.69,3.51,3.51,0,0,1,2-.87C14.21,4,15.11,4,16,4a.31.31,0,0,1,.31.28,1.11,1.11,0,0,1,0,.17V6.65c0,.35-.11.45-.45.46-.51,0-1,0-1.53,0a.82.82,0,0,0-.88.91c0,.53,0,1.07,0,1.6,0,.11,0,.12.13.12h2.22c.3,0,.42.11.42.42v2.45c0,.3-.12.41-.42.41H13.62c-.13,0-.16,0-.16.16,0,2.11,0,4.22,0,6.33a.5.5,0,0,1-.22.47Z"/></svg>