<svg id="Layer_1" data-name="Layer 1" xmlns="http://www.w3.org/2000/svg" viewBox="0 0 24 24"><defs><style>.cls-1{fill:#323232;}</style></defs><path class="cls-1" d="M5.14,8.31V7.53c.05,0,0,0,0,0a.48.48,0,0,1,.05-.17,1.93,1.93,0,0,1,.23-.48h0l.19-.25h0s0,0,0,0h0s0,0,0,0h0s0,0,0,0h0a0,0,0,0,0,0,0h0l.28-.19h0l.38-.16h0s0,0,.07,0h.08a.15.15,0,0,0,.09,0h.54A.15.15,0,0,0,7.4,6h0l.35.12.2.1a2.65,2.65,0,0,1,.42.33,2.6,2.6,0,0,1,.25.33l.15.26v0s0,0,0,0h0c0,.11.05.22.08.33h0a.39.39,0,0,0,0,.15V7.9l0,.33a.58.58,0,0,0,0,.19s0,0,0,.05v0l-.1.22a2.58,2.58,0,0,1-.32.49h0c-.11.09-.21.19-.32.27s-.25.14-.38.21l-.3.09H7.37a2,2,0,0,1-.92-.07h0s0,0,0,0a.13.13,0,0,0-.1,0s0,0,0,0a0,0,0,0,0,0,0l0,0a2,2,0,0,1-.59-.48,2.07,2.07,0,0,0-.17-.24l-.13-.27a.68.68,0,0,0-.07-.2s0-.05,0-.07S5.16,8.31,5.14,8.31Z"/><path class="cls-1" d="M8.11,20H5.93a.52.52,0,0,1-.26-.17,1.3,1.3,0,0,1-.1-.15V19.5c0-1.37,0-2.74,0-4.11V12.6c0-.54,0-1.07,0-1.61v-.05a.55.55,0,0,1,.2-.25s.07,0,.08,0h0c.71,0,1.43,0,2.15,0a.47.47,0,0,1,.48.48c0,1.15,0,2.31,0,3.47v3.75c0,.4,0,.79,0,1.18A.49.49,0,0,1,8.11,20Z"/><path class="cls-1" d="M18.69,20H16.5a.51.51,0,0,1-.42-.17h0a.65.65,0,0,1-.08-.27v-4.1a1.61,1.61,0,0,0,0-.31,2.07,2.07,0,0,0,0-.43.17.17,0,0,0,0-.1,1.49,1.49,0,0,0-.1-.51v0a0,0,0,0,0,0-.06s0-.07,0-.11a.26.26,0,0,0-.07-.15.32.32,0,0,0-.09-.16.19.19,0,0,0-.08-.11h0a.25.25,0,0,0-.11-.12s-.08-.07-.12-.1a.86.86,0,0,0-.4-.18s0,0-.07,0h0a1.07,1.07,0,0,0-.4,0,.22.22,0,0,0-.11,0,.91.91,0,0,0-.48.13.06.06,0,0,0-.06,0h0a1.43,1.43,0,0,0-.57.62h0s0,0,0,.07h0a.53.53,0,0,0-.08.17v0a0,0,0,0,0,0,.05v0s0,0,0,0v0a.08.08,0,0,0,0,.05v0s0,0,0,.07v.07a1.86,1.86,0,0,0-.08.41v4.71l-.08.22-.15.12-.13.05H10.32a.66.66,0,0,1-.27-.06.69.69,0,0,1-.16-.18c0-.05,0-.09,0-.14V10.91a0,0,0,0,0,0-.05l.08-.12,0,0h0s.1,0,.13-.08h0l.27,0h1c.34,0,.69,0,1,0a.46.46,0,0,1,.26.17l.08.2v.52a1,1,0,0,0,0,.24c0-.06.07-.08.08-.14a0,0,0,0,0,0,0,.05.05,0,0,0,0-.05l0,0c.12-.12.24-.24.35-.37s0,0,0,0h0l.33-.23s.07,0,.08-.05a1.31,1.31,0,0,0,.27-.12l.53-.15c.06,0,.14,0,.2,0h.07a.17.17,0,0,0,.12,0h.06a1.58,1.58,0,0,0,.38,0h.33a1.83,1.83,0,0,0,.33,0h.07a.11.11,0,0,0,.1,0h.09s0,0,.06,0a2.83,2.83,0,0,1,.69.19,3.56,3.56,0,0,1,.6.34,1,1,0,0,0,.19.15.41.41,0,0,0,.16.16.34.34,0,0,0,.09.12l.22.31s0,0,0,0l.13.25s0,.07.05.08h0l.15.43a1.55,1.55,0,0,0,.08.23v0a.12.12,0,0,0,0,.08v0a.06.06,0,0,0,0,.07v.05l.08.43v.05a.27.27,0,0,0,0,.15c0,2,0,4,0,6,0,0,0,0,0,0s0,0,0,0A.67.67,0,0,1,18.69,20Z"/></svg>