<svg id="Layer_1" data-name="Layer 1" xmlns="http://www.w3.org/2000/svg" viewBox="0 0 24 24"><defs><style>.cls-1{fill:#323232;}</style></defs><path class="cls-1" d="M4.19,17c-.05-.11-.14-.18-.19-.29s.09,0,.13.07a4.61,4.61,0,0,0,1,.63h0l0,0c.19.07.37.15.56.2a3.21,3.21,0,0,0,.52.11H6.4s0,0,.07,0h.69a1.53,1.53,0,0,0,.43,0c.06,0,.15,0,.2-.06h.08s0,0,0,0H8a.09.09,0,0,0,.07,0h0A3.71,3.71,0,0,0,9.28,17a1.69,1.69,0,0,0,.36-.3.41.41,0,0,0,.19-.22,1.43,1.43,0,0,1-.55-.05A1.67,1.67,0,0,1,9,16.27a1,1,0,0,1-.25-.36,1,1,0,0,1,0-.38.4.4,0,0,0,.1-.15,2.13,2.13,0,0,1,.34-.25s0,0,0,0,0,0-.06,0A2,2,0,0,1,8.49,15l-.35-.14a2.56,2.56,0,0,1-.58-.56.41.41,0,0,0,0-.09c0-.06-.09-.11-.08-.19l0,0a1.25,1.25,0,0,1,.65-.37,1.11,1.11,0,0,0,.25,0A1.08,1.08,0,0,0,8,13.44l-.4-.18s0,0-.07,0a1.31,1.31,0,0,0-.24-.17l-.21-.22L7,12.64c0-.05,0-.13-.1-.17s0,0,0,0-.1-.25-.13-.39v0s0-.1,0-.14.1,0,.16,0c.23,0,.47-.08.7-.11-.1-.05-.18-.12-.28-.18s-.35-.33-.52-.5a3.21,3.21,0,0,1-.31-.5A3.13,3.13,0,0,1,6.34,10v0a2.09,2.09,0,0,0,0-.25c0-.09,0-.09.1-.06l.14.05h0A2.5,2.5,0,0,0,7,9.9H7a.11.11,0,0,0,.08,0h0s0,0,.07,0h0s0,0,0,0l.29.12.6.25a1.83,1.83,0,0,0,.32.14c0,.05.06,0,.09.05l.71.33a2.69,2.69,0,0,0,.38.19c.11.08.24.13.36.2a.07.07,0,0,0,.06,0,.76.76,0,0,0,.23.13s0,0,.08.05,0,0,0,0,.27.17.4.27a9.72,9.72,0,0,1,.76.68s.06.07.08.06a.08.08,0,0,0,.05-.1,1,1,0,0,0,.1-.29l0,0a3,3,0,0,1,.17-.45c.05-.13.1-.25.14-.38a1.24,1.24,0,0,0,.15-.33s0,0,0,0v0l.4-.77s0,0,0,0L13,9.7h0s.05,0,0-.06h0s0,0,0,0,0,0,0-.06.06,0,0-.08h0s0,0,0,0l0,0s0,0,0,0,.24-.25.35-.38a5,5,0,0,1,.55-.48s0,0,0,.07a1.61,1.61,0,0,1-.09.26l.36-.22.29-.15a.21.21,0,0,0,.13-.05.06.06,0,0,0,.07,0H15a.14.14,0,0,0,.09,0s.07,0,.1,0,0,.07,0,.11a.35.35,0,0,1,0,.08c-.06.1-.17.16-.26.26a5.16,5.16,0,0,1,.6-.19.67.67,0,0,1,.42,0h0l0,0a.22.22,0,0,1-.08.31l-.09.08s0,0-.06,0h0l-.09,0-.05,0s0,0-.07,0h0a.47.47,0,0,0-.26.08h0s-.05,0-.08,0h0l-.35.11v0l.42,0h.13a.1.1,0,0,0,.1,0h.08s0,0,.06,0a2.67,2.67,0,0,1,.26.09,5.2,5.2,0,0,1,.53.26h0s0,0,0,0c.17.11.31.24.46.35a.62.62,0,0,0,.14.14h0s.05.08.1.1h0s.06.06.09.09.26.34.4.5v0s0,0,0,0,0,.06,0,.09.14.29.2.44.11.26.16.39v.06a0,0,0,0,0,0,.06v.07s0,.05,0,.07v.07a.78.78,0,0,1,0,.16.1.1,0,0,0,.05.08.43.43,0,0,0,.22.06h.2s.05,0,.07,0,.29,0,.43,0l.08,0h0a.06.06,0,0,0,.07,0h0a.11.11,0,0,0,.08,0h0a2.45,2.45,0,0,0,.54-.18l.1,0v0s0,0,0,0a1.58,1.58,0,0,1-.89.81s0,0,0,0a5.53,5.53,0,0,1-.7.18,3.38,3.38,0,0,0,1.09.19h.38l.19,0s0,0,.06,0,0,0,0,.05a1.61,1.61,0,0,1-.43.35,1.92,1.92,0,0,1-.51.22l-.05,0c-.08,0-.14,0-.21,0a3.57,3.57,0,0,1-.56.07h-.1s0,0,0,0v0a.14.14,0,0,0,0,.09v.06a3.73,3.73,0,0,0-.14.44v0s0,0,0,0v.06s0,0,0,0l-.06.14c0,.13-.12.24-.15.37a2.27,2.27,0,0,0-.19.34c-.11.19-.24.37-.35.55h0s0,0,0,.05h0a2.33,2.33,0,0,0-.27.35h0s0,0,0,0h0s-.05,0,0,0l0,0s0,0,0,0l0,0a.82.82,0,0,0-.17.2h0s-.05,0,0,0a1.16,1.16,0,0,0-.18.2c-.06,0-.11.1-.17.15l-.09.1,0,0h0s0,0-.05,0h0a2.09,2.09,0,0,0-.29.23.79.79,0,0,0-.18.14,2.7,2.7,0,0,0-.39.27h0l-.44.26-.37.21s-.08,0-.11,0-.05,0-.08,0h0s-.08,0-.1,0h-.05s0,0,0,0h0a0,0,0,0,0-.05,0h0a.67.67,0,0,0-.23.1s0,0,0,0h0a4.24,4.24,0,0,1-.5.18l-.53.16h0a2.47,2.47,0,0,0-.29.06c-.1,0-.2,0-.29.07h0a.18.18,0,0,0-.12,0h-.06c-.14,0-.29,0-.43,0l0,0H9.59c-.05,0-.12,0-.18,0H9.33l-.54-.09H8.7a.08.08,0,0,0-.08,0H8.54a.05.05,0,0,0,0,0,6.75,6.75,0,0,1-.8-.24l-.37-.14s-.06-.05-.1,0a.81.81,0,0,0-.21-.1,4,4,0,0,0-.46-.23h0a.06.06,0,0,0-.06,0h0a3.79,3.79,0,0,0-.34-.2.79.79,0,0,0-.23-.14s0,0,0,0h0a.67.67,0,0,0-.14-.11l-.38-.3A2.16,2.16,0,0,0,5,17.93.26.26,0,0,0,5,17.84a3,3,0,0,0-.31-.31s-.06-.09-.12-.1a1.11,1.11,0,0,0-.25-.32S4.24,17,4.19,17Z"/></svg>